<?xml version="1.0" encoding="utf-8"?><!-- Uploaded to: SVG Repo, www.svgrepo.com, Generator: SVG Repo Mixer Tools -->
<svg width="800px" height="800px" viewBox="0 0 400 400" fill="none" xmlns="http://www.w3.org/2000/svg">
<path d="M195.767 176.394C117.99 94.5148 161.314 50.4971 205.98 50.4971C233.934 50.4971 263.289 67.3709 238.909 125.353C231.953 141.897 205.98 176.394 195.935 176.394" stroke="#000000" stroke-opacity="0.9" stroke-width="16" stroke-linecap="round" stroke-linejoin="round"/>
<path d="M172.815 281.577C148.074 168.706 235.654 162.567 219.937 275.195" stroke="#000000" stroke-opacity="0.9" stroke-width="16" stroke-linecap="round" stroke-linejoin="round"/>
<path d="M183.507 206.268C184.651 235.541 180.598 337.878 183.505 349.346L172.248 352.436M209.667 206.268C209.667 235.81 207.594 337.57 203.924 349.346L212.171 353.503" stroke="#000000" stroke-opacity="0.9" stroke-width="16" stroke-linecap="round" stroke-linejoin="round"/>
<path d="M189.005 124.201C175.362 120.062 171.517 115.075 172.353 111.502C173.953 104.661 192.718 103.008 192.718 122.434" stroke="#000000" stroke-opacity="0.9" stroke-width="16" stroke-linecap="round" stroke-linejoin="round"/>
<path d="M219.512 124.151C198.01 124.251 219.28 101.523 225.747 108.309C231.387 114.227 227.064 123.794 219.512 123.794" stroke="#000000" stroke-opacity="0.9" stroke-width="16" stroke-linecap="round" stroke-linejoin="round"/>
</svg>