<?xml version="1.0" ?>
<!-- Uploaded to: SVG Repo, www.svgrepo.com, Generator: SVG Repo Mixer Tools -->
<svg fill="#000000" width="800px" height="800px" viewBox="0 0 64 64" xmlns="http://www.w3.org/2000/svg">
<g id="alien">
<path d="M44.4885,14.6128c.4765-.9524,1.491-2.8119,2.53-4.6614A3.4569,3.4569,0,0,0,47.5,10a3.5388,3.5388,0,1,0-2.3063-.8882c-1.26,2.2306-2.0117,3.607-2.4417,4.49A25.4564,25.4564,0,0,0,31,11a25.6069,25.6069,0,0,0-11.5569,2.4976c-.4374-.8863-1.1767-2.2376-2.39-4.3858a3.8065,3.8065,0,1,0-1.8248.84c.9955,1.772,1.968,3.552,2.467,4.5361C12.1571,18.0232,9,24.09,9,32,9,44.5664,27.69,62,31,62S53,44.5664,53,32C53,24.1794,49.91,18.1653,44.4885,14.6128ZM47.5,5A1.5,1.5,0,1,1,46,6.5,1.5017,1.5017,0,0,1,47.5,5ZM13.2471,6.5a1.5,1.5,0,1,1,1.5,1.5A1.5016,1.5016,0,0,1,13.2471,6.5ZM31,59.98C28.4814,59.0664,11,43.958,11,32c0-7.3459,2.8577-12.8562,7.9863-16.0029V16l.5966-.3433A23.165,23.165,0,0,1,31,13c12.5234,0,20,7.1025,20,19C51,43.958,33.5186,59.0664,31,59.98Z"/>
<path d="M51.7,57.4561a1,1,0,0,0-1.4141,0l-.7671.767-.767-.767a1,1,0,1,0-1.4141,1.414l.7671.7671-.7671.7671a1,1,0,1,0,1.4141,1.4141l.767-.7671.7671.7671A1,1,0,1,0,51.7,60.4043l-.7671-.7671L51.7,58.87A1,1,0,0,0,51.7,57.4561Z"/>
<circle cx="57" cy="15" r="1"/>
<path d="M6,15a1,1,0,0,0,1-1V13a1,1,0,0,0-2,0v1A1,1,0,0,0,6,15Z"/>
<path d="M6,17a1,1,0,0,0-1,1v1a1,1,0,0,0,2,0V18A1,1,0,0,0,6,17Z"/>
<path d="M4,15H3a1,1,0,0,0,0,2H4a1,1,0,0,0,0-2Z"/>
<path d="M10,16a1,1,0,0,0-1-1H8a1,1,0,0,0,0,2H9A1,1,0,0,0,10,16Z"/>
<path d="M40.6377,23.6279A8.7648,8.7648,0,0,0,34.416,27.082c-2.3984,3.4541-1.3135,8.2325.5615,9.6455a4.1633,4.1633,0,0,0,2.4981.6846,7.6092,7.6092,0,0,0,1.207-.1006,8.51,8.51,0,0,0,5.5908-3.3867c2.3536-3.3906.8311-8.3086-.4658-9.5654A4.1785,4.1785,0,0,0,40.6377,23.6279Z"/>
<path d="M28.1221,27.082A8.7648,8.7648,0,0,0,21.9,23.6279a4.1837,4.1837,0,0,0-3.17.7315c-1.2969,1.2568-2.8194,6.1748-.4659,9.5654a8.51,8.51,0,0,0,5.5909,3.3867,7.5987,7.5987,0,0,0,1.207.1006,4.1651,4.1651,0,0,0,2.498-.6846C29.4355,35.3145,30.5205,30.5361,28.1221,27.082Z"/>
<path d="M31,43a4.0039,4.0039,0,0,0-4,4c0,1.99,1.5957,5,4,5s4-3.01,4-5A4.0039,4.0039,0,0,0,31,43Z"/>
</g>
</svg>