<?xml version="1.0" encoding="utf-8"?><!-- Uploaded to: SVG Repo, www.svgrepo.com, Generator: SVG Repo Mixer Tools -->
<svg width="800px" height="800px" viewBox="0 0 400 400" fill="none" xmlns="http://www.w3.org/2000/svg">
<path d="M201.141 151.59C162.131 140.296 198.356 60.4531 229.737 70.9707C254.881 79.3981 242.863 144.84 217.402 152.154" stroke="#000000" stroke-opacity="0.9" stroke-width="16" stroke-linecap="round" stroke-linejoin="round"/>
<path d="M251.272 104.78C323.658 52.3928 273.838 140.558 250.141 160.905C243.364 166.723 225.238 179.285 225.238 160.905" stroke="#000000" stroke-opacity="0.9" stroke-width="16" stroke-linecap="round" stroke-linejoin="round"/>
<path d="M210.104 205.738C214.984 195.293 220.86 185.569 228.21 176.692C234.539 169.047 242.89 162.579 250.841 156.759C301.161 119.92 247.948 225.165 221.986 217.698" stroke="#000000" stroke-opacity="0.9" stroke-width="16" stroke-linecap="round" stroke-linejoin="round"/>
<path d="M215.51 234.555C220.735 226.882 226.894 218.31 235.395 214.049C243.94 209.765 253.893 208.353 263.235 208.353C296.769 208.353 232.107 290.516 221.191 252.213" stroke="#000000" stroke-opacity="0.9" stroke-width="16" stroke-linecap="round" stroke-linejoin="round"/>
<path d="M220.913 62.1235C188.681 19.0648 159.279 56.4568 183.142 98.1175" stroke="#000000" stroke-opacity="0.9" stroke-width="16" stroke-linecap="round" stroke-linejoin="round"/>
<path d="M184.167 156.316C177.49 146.631 171.561 136.261 162.223 128.808C157.626 125.139 152.579 122.867 147.593 119.826C135.731 112.595 129.065 105.84 119.46 117.02C96.4352 143.821 169.432 216.242 181.917 166.421" stroke="#000000" stroke-opacity="0.9" stroke-width="16" stroke-linecap="round" stroke-linejoin="round"/>
<path d="M193.304 289.408C197.354 272.288 180.39 192.505 149.241 202.778C143.189 204.774 138.208 211.511 134.936 216.367C119.916 238.659 173.261 248.008 186.437 250.906" stroke="#000000" stroke-opacity="0.9" stroke-width="16" stroke-linecap="round" stroke-linejoin="round"/>
<path d="M180.928 184.576C199.193 213.28 211.632 263.655 200.473 295.892" stroke="#000000" stroke-opacity="0.9" stroke-width="16" stroke-linecap="round" stroke-linejoin="round"/>
<path d="M204.627 160.8C205.036 201.556 203.621 242.425 203.621 282.923" stroke="#000000" stroke-opacity="0.9" stroke-width="16" stroke-linecap="round" stroke-linejoin="round"/>
<path d="M216.588 225.645C210.166 246.834 205.781 269.373 205.781 291.569" stroke="#000000" stroke-opacity="0.9" stroke-width="16" stroke-linecap="round" stroke-linejoin="round"/>
<path d="M175.867 294.815C182.51 302.438 232.146 292.404 233.924 295.381C237.213 300.89 235.907 314.849 235.051 320.872C233.429 332.281 234.844 345.166 227.16 354.82C224.998 357.535 186.82 358.307 178.122 356.559C163.194 353.558 166.291 306.693 169.667 296.514" stroke="#000000" stroke-opacity="0.9" stroke-width="16" stroke-linecap="round" stroke-linejoin="round"/>
</svg>