<?xml version="1.0" encoding="iso-8859-1"?>
<!-- Uploaded to: SVG Repo, www.svgrepo.com, Generator: SVG Repo Mixer Tools -->
<!DOCTYPE svg PUBLIC "-//W3C//DTD SVG 1.1//EN" "http://www.w3.org/Graphics/SVG/1.1/DTD/svg11.dtd">
<svg fill="#000000" version="1.1" id="Capa_1" xmlns="http://www.w3.org/2000/svg" xmlns:xlink="http://www.w3.org/1999/xlink" 
	 width="800px" height="800px" viewBox="0 0 327.202 327.202"
	 xml:space="preserve">
<g>
	<g>
		<path d="M203.009,159.786l71.694-71.695c0.027-0.028,0.032-0.08,0.061-0.107c13.255-5.1,26.708-13.116,33.822-20.222
			c7.103-7.089,10.993-16.512,10.993-26.542c0-10.02-3.891-19.456-10.993-26.539c-7.101-7.091-16.504-10.994-26.528-10.994
			c-10.035,0-19.462,3.902-26.55,10.994c-7.224,7.234-15.421,21.048-20.487,34.523l-71.309,71.292L91.79,48.572
			c-0.033-0.036-0.08-0.042-0.112-0.068C86.572,35.25,78.56,21.792,71.456,14.687C64.361,7.595,54.941,3.693,44.91,3.693
			c-10.024,0-19.447,3.901-26.531,10.994C11.285,21.775,7.386,31.201,7.386,41.226c0,10.024,3.894,19.453,10.993,26.536
			c7.24,7.234,21.051,15.42,34.524,20.503l71.519,71.52L0.82,283.383c-1.094,1.095-1.094,2.879,0,3.962l35.332,35.349
			c0.528,0.525,1.24,0.82,1.985,0.82c0.751,0,1.463-0.304,1.982-0.82L163.72,199.082l123.361,123.372
			c0.527,0.524,1.236,0.821,1.98,0.821c0.745,0,1.456-0.297,1.988-0.821l35.331-35.339c1.094-1.083,1.094-2.867,0-3.961
			L203.009,159.786z M259.458,18.643c6.032-6.035,14.058-9.352,22.58-9.352c8.512,0,16.534,3.324,22.565,9.352
			c6.028,6.036,9.353,14.055,9.353,22.578c0,8.528-3.324,16.55-9.353,22.58c-6.425,6.427-19.162,14.025-31.422,18.816L256.909,66.35
			l-16.267-16.266C245.441,37.805,253.04,25.064,259.458,18.643z M237.387,54.742l16.688,16.678l14.699,14.698l-69.726,69.705
			l-31.379-31.371L237.387,54.742z M12.979,41.226c0-8.523,3.32-16.547,9.351-22.578c6.027-6.027,14.052-9.351,22.57-9.351
			c8.528,0,16.552,3.324,22.582,9.351c6.422,6.422,14.02,19.163,18.816,31.432L70.024,66.345L53.752,82.61
			c-12.265-4.791-25.007-12.388-31.428-18.815C16.299,57.765,12.979,49.759,12.979,41.226z M159.746,195.121L38.125,316.74
			L6.751,285.375l121.616-121.632L159.746,195.121z M289.062,316.51L58.426,85.877l16.688-16.682L89.81,54.499l71.919,71.921
			c0.005,0.005,0.005,0.005,0.005,0.011l35.345,35.339l0,0l123.377,123.365L289.062,316.51z"/>
		<path d="M107.959,95.532c-1.086-1.091-2.867-1.091-3.957,0c-1.09,1.092-1.09,2.871,0,3.962L204.61,200.11
			c0.566,0.554,1.283,0.821,1.984,0.821c0.7,0,1.438-0.285,1.985-0.821c1.096-1.094,1.096-2.878,0-3.961L107.959,95.532z"/>
		<path d="M274.928,274.366c0.547,0.565,1.274,0.821,1.988,0.821c0.72,0,1.434-0.274,1.979-0.821c1.084-1.078,1.084-2.879,0-3.962
			l-15.571-15.558c-1.086-1.094-2.869-1.094-3.964,0c-1.083,1.078-1.083,2.87,0,3.963L274.928,274.366z"/>
	</g>
</g>
</svg>