<?xml version="1.0" encoding="utf-8"?><!-- Uploaded to: SVG Repo, www.svgrepo.com, Generator: SVG Repo Mixer Tools -->
<svg width="800px" height="800px" viewBox="0 0 400 400" fill="none" xmlns="http://www.w3.org/2000/svg">
<path d="M185.887 125.512C192.177 160.406 177.936 188.185 166.37 218.883" stroke="#000000" stroke-opacity="0.9" stroke-width="16" stroke-linecap="round" stroke-linejoin="round"/>
<path d="M217.667 125.512C210.039 161.493 229.639 193.948 233.262 227.598" stroke="#000000" stroke-opacity="0.9" stroke-width="16" stroke-linecap="round" stroke-linejoin="round"/>
<path d="M100.716 125.122C184.547 -12.0019 416.249 133.831 235.236 154.146" stroke="#000000" stroke-opacity="0.9" stroke-width="16" stroke-linecap="round" stroke-linejoin="round"/>
<path d="M174.372 158.795C163.874 161.94 94.3107 141.843 97.0805 133.472C107.331 102.513 268.681 111.94 296.439 127.913" stroke="#000000" stroke-opacity="0.9" stroke-width="16" stroke-linecap="round" stroke-linejoin="round"/>
<path d="M181.083 217.638C189.472 254.03 174.807 293.047 177.972 328.438" stroke="#000000" stroke-opacity="0.9" stroke-width="16" stroke-linecap="round" stroke-linejoin="round"/>
<path d="M216.038 227.598C214.607 259.861 226.648 294.713 220.2 325.949C204.546 330.098 193.621 332.173 187.428 332.173" stroke="#000000" stroke-opacity="0.9" stroke-width="16" stroke-linecap="round" stroke-linejoin="round"/>
<path d="M181.236 219.758C196.751 218.125 211.846 218.872 227.07 221.367" stroke="#000000" stroke-opacity="0.9" stroke-width="16" stroke-linecap="round" stroke-linejoin="round"/>
</svg>