<?xml version="1.0" encoding="iso-8859-1"?>
<!-- Uploaded to: SVG Repo, www.svgrepo.com, Generator: SVG Repo Mixer Tools -->
<svg height="800px" width="800px" version="1.1" id="Capa_1" xmlns="http://www.w3.org/2000/svg" xmlns:xlink="http://www.w3.org/1999/xlink" 
	 viewBox="0 0 40.649 40.649" xml:space="preserve">
<g>
	<path style="fill:#010002;" d="M39.654,0.17c-0.185-0.178-0.474-0.222-0.714-0.106L1.145,19.135
		c-0.201,0.103-0.332,0.305-0.342,0.526c-0.012,0.224,0.098,0.438,0.286,0.558l7.714,4.93l1.201,14.924
		c0.021,0.245,0.176,0.451,0.405,0.537c0.068,0.025,0.142,0.039,0.218,0.039c0.164,0,0.32-0.064,0.439-0.181l6.457-6.397l3.96,5.586
		c0.117,0.165,0.308,0.264,0.511,0.264l0.062-0.003c0.226-0.024,0.415-0.162,0.509-0.368L39.793,0.878
		C39.902,0.636,39.845,0.352,39.654,0.17z M11.142,38.632l-1.018-12.638l3.06,1.955l3.607,5.088L11.142,38.632z M10.601,24.814
		l12.66-7.403l-6.82,12.971l-2.307-3.254c-0.044-0.062-0.103-0.119-0.174-0.166L10.601,24.814z M21.87,38.038l-4.618-6.514
		l8.131-15.464c0.13-0.243,0.081-0.549-0.119-0.742c-0.197-0.189-0.513-0.226-0.748-0.088L9.418,24.057l-6.73-4.301L37.937,1.97
		L21.87,38.038z"/>
</g>
</svg>