<?xml version="1.0" ?>
<!-- Uploaded to: SVG Repo, www.svgrepo.com, Generator: SVG Repo Mixer Tools -->
<svg fill="#000000" width="800px" height="800px" viewBox="0 0 64 64" xmlns="http://www.w3.org/2000/svg">
<g id="skull">
<path d="M6.7,13.4561a1,1,0,0,0-1.4141,0l-.7671.767-.767-.767A1,1,0,0,0,2.3379,14.87l.7671.7671-.7671.7671A1,1,0,1,0,3.752,17.8184l.767-.7671.7671.7671A1,1,0,1,0,6.7,16.4043l-.7671-.7671L6.7,14.87A1,1,0,0,0,6.7,13.4561Z"/>
<path d="M56,53a3,3,0,1,0,3,3A3.0033,3.0033,0,0,0,56,53Zm0,4a1,1,0,1,1,1-1A1.0009,1.0009,0,0,1,56,57Z"/>
<circle cx="59" cy="45" r="1"/>
<path d="M56,33A24,24,0,1,0,19.1492,53.2622l-.3094,1.541a1.0005,1.0005,0,0,0,.5235,1.0864l3.4043,1.7466A3.9527,3.9527,0,0,0,26.6406,61H37.3594a3.9527,3.9527,0,0,0,3.873-3.3638L44.6367,55.89a1.0005,1.0005,0,0,0,.5235-1.0864l-.3095-1.5412A23.8461,23.8461,0,0,0,56,33ZM44.4265,51.1488l-1.1941-5.9476A2.2493,2.2493,0,0,1,45.4385,43H47.792A4.2554,4.2554,0,0,0,52,38.708a1,1,0,0,0-2,0A2.2536,2.2536,0,0,1,47.792,41H45.4385a4.2554,4.2554,0,0,0-4.208,4.292,1.0267,1.0267,0,0,0,.02.1968l1.8008,8.9668L39.8252,56.11a1.0007,1.0007,0,0,0-.543.89,1.9645,1.9645,0,0,1-1.9228,2H26.6406a1.9645,1.9645,0,0,1-1.9228-2,1.0007,1.0007,0,0,0-.543-.89l-3.2256-1.6548L22.75,45.4888a1.0267,1.0267,0,0,0,.02-.1968A4.2554,4.2554,0,0,0,18.5615,41H16.208A2.2536,2.2536,0,0,1,14,38.708a1,1,0,0,0-2,0A4.2554,4.2554,0,0,0,16.208,43h2.3535a2.2493,2.2493,0,0,1,2.2061,2.2012l-1.1942,5.9479a22,22,0,1,1,24.8531,0Z"/>
<path d="M30,25.2139A3.2174,3.2174,0,0,0,26.7861,22h-5A5.7927,5.7927,0,0,0,16,27.7861v2A3.2174,3.2174,0,0,0,19.2139,33h5A5.7927,5.7927,0,0,0,30,27.2139Z"/>
<path d="M42.2139,22h-5A3.2174,3.2174,0,0,0,34,25.2139v2A5.7927,5.7927,0,0,0,39.7861,33h5A3.2174,3.2174,0,0,0,48,29.7861v-2A5.7927,5.7927,0,0,0,42.2139,22Z"/>
<path d="M34,45a1,1,0,0,0-1,1v3a1,1,0,0,0,2,0V46A1,1,0,0,0,34,45Z"/>
<path d="M37,45a1,1,0,0,0-1,1v3a1,1,0,0,0,2,0V46A1,1,0,0,0,37,45Z"/>
<path d="M34,40a1,1,0,0,0-1,1v2a1,1,0,0,0,2,0V41A1,1,0,0,0,34,40Z"/>
<path d="M37,40a1,1,0,0,0-1,1v2a1,1,0,0,0,2,0V41A1,1,0,0,0,37,40Z"/>
<path d="M27,45a1,1,0,0,0-1,1v3a1,1,0,0,0,2,0V46A1,1,0,0,0,27,45Z"/>
<path d="M30,45a1,1,0,0,0-1,1v3a1,1,0,0,0,2,0V46A1,1,0,0,0,30,45Z"/>
<path d="M27,40a1,1,0,0,0-1,1v2a1,1,0,0,0,2,0V41A1,1,0,0,0,27,40Z"/>
<path d="M30,40a1,1,0,0,0-1,1v2a1,1,0,0,0,2,0V41A1,1,0,0,0,30,40Z"/>
<path d="M32.8892,32.5562a1.0241,1.0241,0,0,0-1.7784,0l-2.2352,3.9115A1.0242,1.0242,0,0,0,29.7648,38h4.47a1.0242,1.0242,0,0,0,.8892-1.5323Z"/>
</g>
</svg>